<svg xmlns="http://www.w3.org/2000/svg" width="75" height="24" viewBox="0 0 75 24"><g><g><path fill="#222" d="M15.672 2.136L13.44 4.392C12.288 3.288 10.584 2.736 9 2.736c-3.48 0-5.832 2.688-5.832 6.072 0 3.504 2.208 6.312 5.856 6.312 1.272 0 2.76-.216 3.96-.888v-4.008h-3.48V7.488h6.504v8.688c-2.256 1.2-4.632 1.68-7.008 1.68-5.28 0-9-3.6-9-8.856 0-5.352 3.648-9 9-9 2.352 0 4.872.504 6.672 2.136zm10.024 3.648v2.784c-.552-.144-.96-.216-1.392-.216-2.184 0-3.096 1.536-3.096 3.072v6h-2.88V5.904h2.88v1.824h.048c.624-1.32 1.896-2.112 3.408-2.112.432 0 .648.072 1.032.168zm10.752 4.752v6.888h-2.592V15.84h-.072c-.816 1.296-2.16 1.872-3.696 1.872-2.376 0-4.2-1.344-4.2-3.456 0-2.664 2.136-4.008 7.08-4.008h.888v-.336c0-1.344-1.056-2.136-2.64-2.136-1.2 0-2.28.48-3.072 1.2l-1.512-1.512c1.032-1.056 2.64-1.848 4.896-1.848 3.936 0 4.92 2.208 4.92 4.92zm-5.64 5.016c1.968 0 2.88-1.104 2.88-2.568v-.72h-.84c-2.544 0-4.08.552-4.08 1.776 0 .984.96 1.512 2.04 1.512zm9.322-9.648l3.072 8.064h.048l3.096-8.064h2.952l-4.536 11.52H41.69l-4.704-11.52zm13.198-3.912c0 1.032-.84 1.728-1.872 1.728s-1.824-.792-1.824-1.728c0-.936.792-1.728 1.824-1.728 1.056 0 1.872.744 1.872 1.728zm-.408 3.912v11.52h-2.88V5.904zm6.218-3.336v3.336h2.856l.312.736v1.712h-3.168v5.112c0 1.224.48 1.8 1.608 1.8.72 0 1.32-.168 1.56-.36v2.424c-.552.264-1.632.384-2.28.384-2.712 0-3.768-1.056-3.768-3.96v-5.4h-2.376V5.904h2.376V2.568zm7.776 14.952l-.504 1.248c-.528 1.272-.816 1.824-2.328 1.824-.504 0-1.008-.12-1.464-.288l-.36 2.592c.72.192 1.464.288 2.208.288 2.88 0 3.648-1.416 4.584-3.792l5.256-13.488h-3l-2.88 7.992h-.048l-3.216-7.992h-2.856v.736z"/></g></g></svg>